<?xml version="1.0" standalone="no"?>
<!DOCTYPE svg PUBLIC "-//W3C//DTD SVG 20010904//EN"
 "http://www.w3.org/TR/2001/REC-SVG-20010904/DTD/svg10.dtd">
<svg version="1.0" xmlns="http://www.w3.org/2000/svg"
 width="1288.000000pt" height="272.000000pt" viewBox="0 0 1288.000000 272.000000"
 preserveAspectRatio="xMidYMid meet">

<g transform="translate(0.000000,272.000000) scale(0.100000,-0.100000)"
fill="#000000" stroke="none">
<path d="M5 2708 c-3 -7 -4 -618 -3 -1358 l3 -1345 6435 0 6435 0 0 1355 0
1355 -6433 3 c-5141 2 -6434 0 -6437 -10z m12835 -1348 l0 -1320 -6400 0
-6400 0 0 1320 0 1320 6400 0 6400 0 0 -1320z"/>
<path d="M930 1835 l0 -495 245 0 245 0 0 148 0 149 259 6 c265 7 299 12 391
55 19 9 37 16 40 17 10 0 95 69 108 87 7 10 18 18 23 18 6 0 18 8 27 17 14 14
17 39 17 151 0 122 -2 134 -20 144 -10 6 -29 21 -40 32 -46 46 -130 107 -154
112 -14 3 -42 9 -61 14 -127 34 -227 40 -652 40 l-428 0 0 -495z m872 226 c63
-32 61 -112 -5 -157 -42 -29 -43 -29 -209 -32 l-168 -3 0 106 0 107 178 -4
c119 -3 186 -8 204 -17z"/>
<path d="M10190 2235 l0 -95 215 0 215 0 0 95 0 95 -215 0 -215 0 0 -95z"/>
<path d="M2734 2060 c-39 -4 -80 -13 -92 -19 -11 -6 -32 -11 -46 -11 -14 0
-40 -9 -58 -20 -18 -11 -40 -20 -48 -20 -8 0 -26 -13 -40 -30 -14 -16 -30 -30
-37 -30 -7 0 -13 -9 -13 -19 0 -11 -4 -21 -9 -23 -5 -1 -11 -16 -13 -33 l-3
-30 201 -3 200 -2 14 24 c28 53 140 62 232 19 32 -16 58 -30 58 -33 0 -12
-152 -50 -275 -70 -228 -37 -327 -57 -335 -70 -3 -5 -37 -22 -75 -39 l-70 -29
-3 -79 c-2 -66 0 -83 16 -101 11 -12 24 -22 30 -22 6 0 17 -6 24 -12 55 -51
194 -88 330 -88 84 0 237 27 255 46 21 21 46 32 82 39 23 4 31 2 31 -10 0 -8
4 -15 9 -15 5 0 11 -9 14 -20 5 -19 14 -20 206 -20 l201 0 -6 28 c-4 15 -10
29 -14 32 -4 3 -10 109 -14 237 -6 235 -10 264 -43 303 -36 44 -45 50 -72 50
-15 0 -36 8 -47 19 -11 10 -36 21 -55 24 -163 29 -231 36 -339 35 -69 0 -157
-4 -196 -8z m356 -442 c0 -50 -11 -80 -26 -74 -7 3 -15 -3 -18 -12 -7 -22
-114 -52 -186 -52 -49 0 -113 21 -126 42 -12 19 6 54 39 74 25 16 61 24 147
33 62 6 115 13 118 16 3 3 16 5 29 5 19 0 23 -5 23 -32z"/>
<path d="M4280 2053 c-30 -8 -69 -17 -87 -20 -17 -3 -39 -14 -49 -24 -10 -11
-30 -19 -51 -19 -28 0 -33 3 -33 24 0 13 -7 27 -16 30 -9 3 -101 6 -205 6
l-189 0 0 -355 0 -355 220 0 220 0 0 221 c0 127 4 218 9 215 5 -3 11 5 15 17
4 17 17 27 44 35 48 15 172 16 172 2 0 -5 13 -10 29 -10 21 0 30 -6 35 -22 3
-13 6 -121 6 -240 l0 -218 220 0 220 0 -1 233 c-1 259 -8 344 -31 361 -8 6
-20 21 -27 34 -7 12 -21 22 -34 22 -12 0 -41 13 -65 29 -23 16 -65 34 -93 40
-70 15 -244 12 -309 -6z"/>
<path d="M5410 2064 c-81 -9 -208 -38 -242 -55 -21 -11 -45 -19 -54 -19 -9 0
-18 -9 -21 -20 -3 -12 -10 -19 -16 -17 -24 8 -57 -45 -57 -89 l0 -44 190 0
c120 0 190 4 190 10 0 6 9 10 19 10 10 0 21 6 24 13 7 18 75 37 135 37 65 0
121 -29 122 -63 0 -18 -76 -37 -290 -72 -208 -33 -320 -60 -320 -75 0 -3 -15
-12 -34 -20 -45 -17 -73 -56 -81 -112 -5 -33 -3 -49 8 -59 8 -8 19 -30 26 -50
8 -26 20 -39 46 -49 19 -8 35 -17 35 -20 0 -20 160 -50 263 -50 106 0 269 28
287 49 10 12 50 31 65 31 9 0 21 -13 26 -30 l11 -30 219 0 220 0 -12 22 c-7
14 -14 89 -17 190 -3 92 -9 168 -13 168 -5 0 -9 27 -9 60 0 33 -4 60 -10 60
-5 0 -10 11 -10 25 0 16 -6 25 -15 25 -8 0 -15 7 -15 15 0 8 -9 24 -20 35 -11
11 -20 24 -20 30 0 15 -81 48 -172 70 -62 16 -126 22 -253 25 -93 2 -186 1
-205 -1z m300 -425 c11 -8 12 -12 3 -16 -7 -2 -13 -20 -13 -38 0 -49 -8 -63
-49 -83 -27 -13 -62 -17 -147 -17 -122 0 -144 8 -144 54 0 52 31 68 157 82 54
6 114 15 133 19 19 4 37 8 40 9 3 0 12 -4 20 -10z"/>
<path d="M6605 2059 c-33 -5 -71 -13 -85 -18 -14 -6 -39 -12 -55 -14 -75 -11
-169 -89 -181 -151 -3 -20 -11 -36 -16 -36 -7 0 -7 -4 -1 -12 6 -7 18 -34 28
-60 10 -27 24 -48 31 -48 7 0 25 -15 41 -34 33 -40 34 -40 378 -66 174 -13
235 -37 235 -90 0 -13 -3 -20 -7 -17 -3 4 -15 -1 -25 -10 -41 -37 -258 -26
-258 13 0 8 -4 14 -9 14 -5 0 -11 10 -13 23 -3 22 -4 22 -205 25 l-203 2 0
-35 c0 -19 4 -35 8 -35 5 0 18 -18 30 -39 12 -22 35 -44 50 -50 27 -11 63 -31
72 -41 11 -13 131 -40 215 -50 126 -14 315 -12 415 5 109 18 143 26 155 35 22
17 86 50 97 50 12 0 58 47 58 60 0 4 5 10 12 12 6 2 13 29 16 60 l4 57 -54 53
c-69 67 -135 99 -271 132 -84 20 -134 26 -223 26 -120 0 -154 8 -154 39 0 36
32 51 109 51 80 0 136 -20 146 -51 6 -18 18 -19 201 -19 148 0 194 3 194 13 0
24 -21 87 -29 87 -4 0 -14 11 -21 25 -7 14 -20 25 -28 25 -7 0 -26 8 -40 19
-15 10 -43 21 -62 24 -19 3 -71 12 -115 21 -88 17 -337 20 -440 5z"/>
<path d="M7937 2060 c-27 -5 -62 -13 -79 -19 -17 -6 -43 -11 -58 -11 -14 0
-36 -9 -48 -20 -12 -11 -30 -20 -40 -20 -10 0 -34 -13 -52 -30 -18 -16 -38
-30 -43 -30 -5 0 -20 -11 -32 -24 -97 -104 -114 -183 -70 -315 24 -74 31 -83
78 -118 29 -21 54 -41 55 -45 2 -5 12 -8 22 -8 10 0 22 -4 25 -10 3 -5 13 -10
21 -10 8 0 24 -8 35 -18 19 -19 69 -33 183 -52 127 -21 389 -6 466 27 66 29
95 41 130 53 19 7 45 24 58 38 12 14 22 22 22 18 0 -4 20 12 44 36 54 54 66
94 66 215 l0 92 -50 51 c-27 28 -50 55 -50 60 0 6 -7 10 -16 10 -8 0 -27 13
-42 29 -18 19 -41 31 -72 35 -24 4 -47 12 -51 18 -7 10 -33 17 -164 43 -76 15
-260 18 -338 5z m252 -203 c6 -8 29 -20 50 -27 42 -14 42 -14 57 -108 6 -45
-11 -132 -27 -132 -5 0 -9 -7 -9 -15 0 -33 -72 -79 -133 -84 -53 -4 -155 28
-163 51 -3 10 -9 18 -14 18 -15 0 -40 81 -40 133 0 105 18 132 103 153 15 3
30 10 33 15 9 15 130 11 143 -4z"/>
<path d="M9510 2063 c-27 -5 -118 -36 -165 -57 -16 -8 -42 -16 -57 -20 -27 -6
-28 -4 -28 29 l0 35 -205 0 -205 0 0 -355 0 -355 215 0 215 0 0 198 c0 225 8
269 48 278 15 3 40 10 56 15 77 24 199 -2 210 -45 3 -12 6 -117 6 -233 l0
-213 225 0 225 0 0 255 c0 142 -4 255 -9 255 -5 0 -12 16 -15 35 -4 19 -10 35
-15 35 -4 0 -16 16 -27 35 -10 19 -25 35 -33 35 -7 0 -21 8 -30 18 -29 31
-146 57 -271 58 -63 1 -126 0 -140 -3z"/>
<path d="M11188 2061 c-32 -5 -70 -13 -85 -19 -15 -6 -41 -13 -58 -15 -16 -2
-47 -11 -67 -20 -21 -10 -44 -17 -52 -17 -8 0 -29 -16 -47 -35 -19 -19 -39
-35 -46 -35 -7 0 -13 -5 -13 -10 0 -11 -5 -18 -44 -64 -14 -16 -28 -45 -31
-65 -3 -20 -8 -48 -10 -63 -7 -45 20 -164 44 -189 11 -12 21 -26 21 -30 0 -4
13 -12 30 -17 16 -6 35 -22 42 -36 7 -17 19 -26 34 -26 13 0 25 -4 29 -9 3 -5
19 -12 35 -16 17 -4 30 -10 30 -14 0 -11 92 -38 170 -51 151 -23 395 -4 484
39 23 12 46 21 50 21 20 0 84 36 113 64 17 17 38 36 45 43 30 27 39 45 45 88
l6 45 -212 0 -211 0 0 -25 c0 -35 -58 -92 -104 -100 -70 -14 -120 2 -173 53
-74 71 -84 108 -62 212 8 36 15 50 28 50 9 0 21 4 27 8 25 21 116 44 151 37
46 -8 125 -45 136 -62 10 -16 373 -19 397 -3 10 6 11 10 3 10 -7 0 -13 6 -13
14 0 8 -6 21 -13 28 -8 7 -19 23 -25 35 -22 40 -85 103 -104 103 -10 0 -35 7
-56 16 -118 50 -346 76 -494 55z"/>
<path d="M10190 1695 l0 -355 215 0 215 0 -2 353 -3 352 -212 3 -213 2 0 -355z"/>
<path d="M3530 720 l0 -230 70 0 70 0 0 230 0 230 -70 0 -70 0 0 -230z"/>
<path d="M3950 720 l0 -230 55 0 55 0 0 165 c0 103 -4 165 -10 165 -16 0 -11
17 7 25 10 3 19 1 21 -5 2 -6 19 -25 38 -42 18 -17 34 -39 36 -51 2 -11 17
-27 35 -36 18 -9 35 -24 39 -34 3 -10 21 -25 40 -34 19 -9 34 -23 34 -30 0 -7
7 -13 15 -13 8 0 15 -8 15 -17 0 -17 40 -49 99 -81 16 -8 50 -12 90 -10 60 3
66 5 69 26 2 12 8 22 13 22 5 0 9 78 9 185 0 117 -4 185 -10 185 -5 0 -10 9
-10 20 0 18 -7 20 -62 20 -43 0 -58 -3 -48 -10 12 -7 15 -43 18 -179 l4 -171
-32 11 c-17 6 -34 18 -37 25 -3 8 -12 14 -19 14 -8 0 -19 11 -26 25 -6 13 -14
22 -18 20 -5 -3 -11 2 -14 11 -3 8 -10 12 -16 9 -5 -3 -10 1 -10 9 0 9 -4 16
-10 16 -5 0 -12 11 -16 25 -4 16 -18 29 -40 37 -19 6 -34 15 -34 19 0 3 -11
18 -25 33 -14 15 -25 32 -25 37 0 6 -4 8 -9 4 -5 -3 -15 11 -21 30 l-12 35
-94 0 -94 0 0 -230z"/>
<path d="M4864 937 c-2 -7 -3 -107 -2 -222 l3 -209 30 -8 c49 -15 273 -21 370
-10 109 11 210 49 221 84 3 10 10 18 15 18 5 0 9 9 9 19 0 11 5 21 11 23 6 2
14 35 16 74 4 56 2 73 -11 86 -9 9 -16 26 -16 37 0 12 -6 21 -15 21 -8 0 -15
6 -15 13 0 16 -37 40 -75 49 -16 3 -48 13 -70 22 -54 20 -463 23 -471 3z m366
-57 c25 -6 54 -14 65 -19 11 -5 28 -12 37 -15 24 -7 48 -70 48 -126 0 -91 -36
-154 -93 -163 -18 -3 -63 -10 -101 -17 -39 -7 -92 -9 -122 -5 l-54 6 0 175 0
174 88 0 c48 0 107 -5 132 -10z"/>
<path d="M5737 943 c-9 -8 -9 -275 -1 -325 4 -23 12 -38 20 -38 8 0 14 -8 14
-17 0 -67 223 -103 432 -71 67 10 83 16 117 48 51 48 61 87 60 235 -1 170 -1
169 -77 173 -34 2 -62 -1 -62 -5 0 -4 5 -52 10 -106 17 -171 0 -234 -76 -284
-35 -23 -195 -25 -234 -3 -14 8 -28 13 -31 12 -4 -1 -10 14 -13 33 -4 19 -11
35 -16 35 -6 0 -10 65 -10 160 l0 160 -63 0 c-35 0 -67 -3 -70 -7z"/>
<path d="M6651 921 c-30 -15 -58 -36 -62 -47 -12 -31 -10 -87 5 -106 20 -27
94 -55 161 -62 101 -11 224 -63 225 -94 0 -17 -25 -42 -59 -60 -42 -22 -165
-26 -266 -9 -49 9 -91 14 -94 12 -12 -12 20 -53 46 -59 65 -14 252 -18 333 -7
92 13 125 32 136 75 3 14 10 26 15 26 14 0 11 23 -11 68 -19 39 -25 43 -93 62
-39 11 -102 29 -138 40 -36 11 -78 20 -93 20 -56 0 -76 57 -30 87 36 23 219
30 292 10 l52 -14 0 33 c0 23 -6 37 -19 44 -12 6 -87 10 -183 9 -156 -1 -165
-2 -217 -28z"/>
<path d="M7237 923 c-3 -16 -3 -31 0 -35 2 -5 47 -8 99 -8 l94 0 0 -195 0
-195 59 0 c97 0 91 -14 91 201 l0 189 65 0 c75 0 125 20 125 50 0 19 -8 20
-264 20 l-264 0 -5 -27z"/>
<path d="M7960 720 l0 -230 65 0 65 0 0 201 0 201 109 -4 c105 -3 110 -4 135
-31 32 -34 32 -49 4 -80 -31 -32 -55 -44 -108 -52 -25 -4 -53 -13 -63 -20 -17
-12 -16 -16 25 -58 24 -24 52 -47 63 -51 11 -3 34 -19 51 -34 18 -15 43 -37
57 -49 32 -27 83 -37 142 -29 33 5 43 11 38 21 -3 8 -9 12 -14 9 -5 -3 -9 -1
-9 4 0 5 -8 12 -17 16 -27 8 -56 29 -71 49 -7 9 -17 17 -23 17 -5 0 -17 8 -27
18 -10 9 -33 29 -51 44 l-34 27 29 6 c83 17 114 29 114 41 0 8 6 14 14 14 24
0 40 64 26 105 -6 19 -18 35 -26 35 -8 0 -14 5 -14 10 0 6 -19 20 -42 30 -38
17 -67 20 -240 20 l-198 0 0 -230z"/>
<path d="M8640 939 c0 -6 16 -26 36 -45 19 -19 40 -48 46 -64 5 -17 16 -30 23
-30 7 0 25 -15 41 -33 16 -18 46 -43 66 -57 l38 -25 0 -98 0 -98 68 3 67 3 3
88 c2 71 6 91 22 107 11 11 23 20 26 20 9 0 34 28 34 38 0 13 57 49 93 57 17
5 27 14 27 26 0 10 7 19 15 19 8 0 15 8 15 18 0 9 9 23 20 30 11 7 20 21 20
32 0 18 -7 20 -64 20 -59 0 -67 -3 -95 -31 -17 -17 -31 -35 -31 -40 0 -18
-125 -149 -142 -149 -11 0 -128 119 -128 130 0 4 -17 26 -39 49 -37 39 -41 41
-100 41 -37 0 -61 -4 -61 -11z"/>
</g>
</svg>
