<?xml version="1.0" standalone="no"?>
<!DOCTYPE svg PUBLIC "-//W3C//DTD SVG 20010904//EN"
 "http://www.w3.org/TR/2001/REC-SVG-20010904/DTD/svg10.dtd">
<svg version="1.0" xmlns="http://www.w3.org/2000/svg"
 width="1575.000000pt" height="251.000000pt" viewBox="0 0 1575.000000 251.000000"
 preserveAspectRatio="xMidYMid meet">

<g transform="translate(0.000000,251.000000) scale(0.100000,-0.100000)"
fill="#000000" stroke="none">
<path d="M10 1255 l0 -1255 7865 0 7865 0 0 1255 0 1255 -7865 0 -7865 0 0
-1255z m15680 0 l0 -1215 -7815 0 -7815 0 0 1215 0 1215 7815 0 7815 0 0
-1215z"/>
<path d="M12650 2180 l0 -100 275 0 275 0 0 100 0 100 -275 0 -275 0 0 -100z"/>
<path d="M680 1741 l0 -531 305 0 305 0 0 160 0 160 300 0 c165 0 300 4 300 9
0 4 30 11 66 14 36 2 71 10 77 16 6 6 29 11 52 11 24 0 35 3 27 8 -8 6 1 13
30 21 24 6 52 16 63 21 11 4 27 11 35 14 8 3 29 14 45 24 17 10 42 22 56 25
15 4 33 21 45 42 10 19 22 35 25 35 4 0 10 18 14 40 4 25 12 40 21 40 10 0 14
14 14 55 0 40 -4 55 -14 55 -8 0 -16 15 -19 34 -6 37 -42 86 -64 86 -7 0 -13
7 -13 15 0 9 -8 19 -17 22 -10 4 -28 17 -40 30 -12 13 -31 23 -43 23 -11 0
-23 6 -26 14 -6 17 -56 36 -90 36 -13 0 -33 8 -43 17 -11 9 -28 19 -38 22 -10
2 -323 6 -695 8 l-678 4 0 -530z m1060 268 c27 -6 50 -15 50 -21 0 -13 26 -38
39 -38 17 0 13 -80 -4 -86 -8 -4 -15 -12 -15 -19 0 -7 -17 -21 -37 -31 -33
-16 -69 -19 -260 -22 l-223 -4 0 116 0 116 200 0 c109 0 222 -5 250 -11z"/>
<path d="M5100 2003 c-19 -2 -37 -8 -40 -12 -5 -9 -96 -29 -167 -38 -24 -3
-43 -9 -43 -14 0 -13 -79 -31 -106 -25 -17 5 -24 13 -24 31 l0 25 -270 0 -270
0 0 -380 0 -380 290 0 290 0 0 230 c0 221 1 231 21 251 12 12 37 25 55 31 19
5 32 13 29 18 -8 14 81 23 153 17 44 -5 69 -12 74 -22 5 -8 16 -15 24 -15 8 0
20 -11 26 -25 6 -14 17 -25 25 -25 10 0 13 -44 13 -230 l0 -230 276 0 275 0
-3 300 c-2 190 -7 303 -13 308 -6 4 -16 19 -22 34 -7 16 -23 30 -38 34 -14 3
-25 10 -25 14 0 4 -13 13 -30 20 -16 7 -30 16 -30 20 0 4 -17 10 -37 13 -94
12 -178 30 -184 39 -6 10 -195 19 -249 11z"/>
<path d="M11835 2003 c-22 -2 -42 -8 -45 -12 -7 -10 -157 -41 -198 -41 -17 0
-32 -4 -32 -10 0 -5 -20 -15 -45 -21 -25 -6 -45 -15 -45 -20 0 -5 -4 -9 -10
-9 -5 0 -10 18 -10 40 l0 40 -270 0 -270 0 0 -380 0 -380 280 0 280 0 0 236
c0 129 4 233 8 230 4 -2 23 9 41 25 19 16 39 29 47 29 7 0 14 6 17 13 3 9 35
12 116 12 97 0 114 -3 122 -18 6 -9 17 -17 25 -17 8 0 17 -7 20 -15 4 -8 12
-15 20 -15 12 0 14 -42 14 -240 l0 -240 275 0 275 0 0 281 c0 256 -2 283 -18
298 -9 9 -25 33 -35 55 -10 21 -27 40 -37 43 -11 3 -20 9 -20 13 0 5 -13 13
-30 19 -16 5 -30 15 -30 20 0 6 -11 11 -24 11 -34 0 -170 32 -176 41 -7 9
-190 19 -245 12z"/>
<path d="M3130 1992 c0 -7 -118 -21 -320 -39 -30 -3 -58 -11 -62 -18 -4 -7
-24 -16 -43 -19 -19 -4 -35 -11 -35 -16 0 -6 -8 -10 -17 -10 -21 -1 -63 -33
-63 -49 0 -6 -4 -11 -10 -11 -5 0 -10 -7 -10 -15 0 -8 -4 -15 -10 -15 -5 0
-10 -20 -10 -43 l0 -44 143 -6 c78 -4 190 -7 250 -7 l107 0 0 30 c0 20 5 30
15 30 8 0 15 4 15 8 0 32 282 54 312 25 6 -7 20 -13 30 -13 14 0 18 -8 18 -34
0 -40 -23 -52 -115 -59 -181 -15 -314 -29 -350 -37 -22 -5 -68 -10 -101 -10
-69 0 -199 -26 -217 -44 -7 -6 -29 -20 -49 -31 -21 -11 -38 -23 -38 -27 0 -5
-9 -8 -20 -8 -11 0 -20 -5 -20 -11 0 -6 -13 -24 -30 -39 -21 -19 -30 -37 -30
-59 0 -17 5 -31 10 -31 6 0 10 -10 10 -21 0 -23 46 -69 68 -69 6 0 12 -7 12
-15 0 -8 9 -15 20 -15 10 0 23 -6 27 -13 9 -14 95 -43 156 -52 20 -3 37 -10
37 -15 0 -6 71 -10 175 -10 96 0 175 4 175 9 0 5 21 12 48 16 64 9 152 35 152
44 0 4 18 13 40 20 22 6 40 16 40 21 0 6 5 10 10 10 6 0 10 -6 10 -14 0 -8 7
-16 15 -20 8 -3 15 -17 15 -31 l0 -25 276 0 c259 0 276 1 269 18 -4 9 -9 34
-12 55 -3 20 -10 37 -14 37 -5 0 -9 62 -9 138 -1 202 -13 326 -33 347 -9 9
-17 21 -17 26 0 5 -6 9 -14 9 -8 0 -17 11 -20 25 -4 16 -13 25 -26 25 -11 0
-20 4 -20 9 0 5 -18 11 -40 15 -23 3 -43 13 -46 21 -5 11 -22 15 -64 15 -32 0
-69 4 -82 9 -13 5 -72 12 -133 16 -60 4 -111 11 -113 16 -4 11 -262 12 -262 1z
m330 -482 c0 -22 -4 -40 -10 -40 -5 0 -10 -7 -10 -16 0 -27 -27 -44 -110 -70
-80 -26 -92 -26 -262 -14 -10 1 -18 5 -18 10 0 5 -10 10 -22 12 -19 2 -23 9
-23 38 0 31 3 35 38 43 20 5 37 13 37 18 0 5 28 9 63 9 34 0 89 7 120 15 32 8
85 15 117 15 33 0 60 4 60 10 0 6 5 10 10 10 6 0 10 -18 10 -40z"/>
<path d="M6540 1992 c0 -8 -129 -23 -337 -39 -45 -3 -63 -9 -63 -19 0 -8 -9
-14 -20 -14 -11 0 -23 -7 -26 -15 -4 -9 -19 -15 -36 -15 -32 0 -57 -23 -58
-52 0 -10 -7 -18 -15 -18 -8 0 -17 -11 -21 -25 -3 -14 -10 -22 -15 -19 -5 3
-9 -4 -9 -16 0 -46 13 -49 274 -56 224 -6 246 -5 246 10 0 9 5 16 10 16 6 0
10 11 10 24 0 36 100 61 212 53 109 -7 148 -21 148 -54 0 -49 -16 -63 -72 -63
-51 0 -109 -6 -338 -35 -63 -8 -141 -15 -173 -15 -60 0 -145 -16 -161 -31 -6
-5 -18 -9 -28 -9 -10 0 -18 -4 -18 -9 0 -5 -11 -12 -25 -15 -14 -4 -25 -11
-25 -16 0 -6 -7 -10 -15 -10 -8 0 -15 -4 -15 -10 0 -5 -9 -10 -20 -10 -11 0
-23 -7 -26 -15 -4 -8 -12 -15 -20 -15 -17 0 -28 -60 -20 -112 7 -42 44 -88 72
-88 7 0 14 -7 14 -15 0 -8 9 -15 20 -15 11 0 23 -7 26 -15 4 -8 14 -15 23 -15
9 0 28 -6 42 -14 14 -7 52 -17 83 -20 31 -4 56 -12 56 -17 0 -5 72 -9 170 -9
94 0 170 4 170 9 0 4 34 14 75 21 41 7 75 17 75 21 0 5 11 9 25 9 14 0 25 4
25 10 0 5 16 12 36 16 19 4 38 13 41 20 9 23 30 16 38 -13 8 -34 24 -55 36
-47 5 3 9 0 9 -5 0 -8 84 -11 260 -11 l260 0 0 25 c0 14 -6 25 -14 25 -21 0
-26 55 -26 281 0 200 -7 260 -34 284 -6 6 -17 22 -25 38 -10 18 -22 27 -38 27
-13 0 -23 4 -23 8 0 5 -18 14 -40 21 -22 6 -40 16 -40 21 0 4 -30 10 -67 13
-147 10 -313 31 -313 39 0 4 -63 8 -140 8 -77 0 -140 -4 -140 -8z m330 -496
c0 -14 -4 -26 -8 -26 -5 0 -15 -15 -24 -33 -14 -30 -23 -34 -105 -55 -115 -28
-205 -29 -267 -2 -42 19 -46 24 -46 55 0 28 4 35 19 35 11 0 26 7 35 15 9 10
35 15 73 15 32 1 85 7 118 15 33 8 86 15 118 15 34 0 57 4 57 11 0 6 7 4 15
-5 8 -8 15 -26 15 -40z"/>
<path d="M8108 1991 c-1 -5 -55 -14 -118 -21 -63 -7 -134 -15 -157 -17 -24 -3
-43 -8 -43 -12 0 -4 -18 -14 -40 -21 -22 -7 -40 -16 -40 -20 0 -4 -18 -10 -40
-14 -31 -5 -41 -11 -46 -31 -3 -14 -12 -25 -19 -25 -18 0 -25 -23 -25 -85 0
-63 7 -85 26 -85 8 0 14 -4 14 -10 0 -5 16 -17 36 -26 20 -9 38 -23 41 -31 3
-7 13 -13 23 -13 10 0 23 -7 30 -15 7 -8 21 -15 31 -15 11 0 19 -4 19 -10 0
-6 33 -10 78 -10 42 0 118 -7 167 -15 50 -8 141 -15 203 -15 61 0 112 -4 112
-8 0 -4 27 -14 60 -20 56 -12 60 -15 60 -40 0 -22 -9 -31 -49 -50 -43 -20 -61
-23 -138 -19 -125 5 -203 39 -203 86 0 21 -4 21 -275 21 -238 0 -275 -2 -275
-15 0 -8 5 -14 12 -13 6 2 18 -22 26 -54 11 -45 18 -58 33 -58 10 0 19 -4 19
-10 0 -5 13 -10 29 -10 16 0 36 -6 43 -14 13 -12 52 -29 71 -31 4 0 11 -5 15
-11 9 -14 127 -41 215 -50 37 -3 67 -10 67 -15 0 -5 110 -9 245 -9 139 0 245
4 245 9 0 5 28 12 63 16 34 4 77 13 96 21 18 8 42 14 51 14 10 0 20 5 22 11 2
5 24 13 48 16 25 3 50 11 56 19 6 8 29 17 50 22 29 6 40 13 42 30 2 12 9 22
16 22 22 0 34 94 20 148 -4 12 -13 22 -20 22 -8 0 -14 9 -14 21 0 12 -8 23
-19 26 -11 3 -21 13 -24 24 -3 11 -14 19 -25 19 -12 0 -23 4 -26 9 -3 4 -26
11 -52 14 -26 2 -49 9 -53 15 -8 12 -59 20 -211 31 -69 5 -132 12 -140 15 -8
3 -71 10 -139 15 -68 5 -126 13 -130 19 -3 5 -15 11 -26 13 -12 3 -20 12 -20
24 0 27 84 56 155 53 76 -3 162 -28 167 -49 3 -9 15 -20 26 -23 34 -9 505 -7
511 2 9 15 -6 52 -20 52 -9 0 -14 11 -14 28 0 32 -16 52 -42 52 -10 0 -18 4
-18 8 0 5 -22 14 -50 21 -27 7 -50 17 -50 21 0 4 -24 10 -52 13 -128 11 -254
31 -260 41 -6 8 -11 6 -18 -4 -6 -10 -10 -11 -10 -2 0 9 -41 12 -169 12 -93 0
-171 -4 -173 -9z"/>
<path d="M9828 1991 c-3 -9 -126 -28 -247 -38 -30 -3 -61 -11 -68 -19 -8 -7
-29 -16 -48 -20 -19 -3 -35 -10 -35 -15 0 -5 -13 -9 -29 -9 -17 0 -33 -4 -36
-10 -3 -5 -15 -10 -26 -10 -12 0 -19 -7 -19 -20 0 -13 -7 -20 -19 -20 -19 0
-121 -92 -121 -109 0 -5 -8 -17 -17 -27 -14 -14 -18 -35 -18 -99 0 -70 3 -84
23 -105 12 -13 22 -32 22 -41 0 -10 9 -21 20 -24 11 -3 20 -13 20 -21 0 -8 6
-14 13 -14 8 0 20 -11 27 -25 7 -13 21 -27 32 -31 10 -3 18 -9 18 -13 0 -5 23
-11 50 -14 28 -3 57 -13 66 -22 8 -8 26 -15 39 -15 13 0 28 -6 32 -13 10 -15
76 -35 163 -48 36 -6 67 -15 68 -20 5 -12 432 -12 432 0 0 5 28 12 63 16 34 4
77 13 96 21 18 8 44 14 56 14 13 0 25 7 29 15 3 9 18 15 34 15 16 0 39 9 52
20 13 11 37 20 55 20 18 0 38 7 45 15 7 8 19 15 26 15 8 0 14 9 14 20 0 11 6
20 14 20 8 0 16 7 20 15 3 8 12 15 21 15 10 0 15 10 15 29 0 39 9 61 25 61 18
0 29 70 20 136 -4 35 -11 54 -20 54 -16 0 -25 22 -25 61 0 22 -5 29 -20 29
-11 0 -20 5 -20 10 0 6 -7 10 -15 10 -8 0 -15 7 -15 15 0 8 -6 15 -14 15 -8 0
-16 6 -19 14 -7 17 -63 46 -89 46 -10 0 -18 4 -18 9 0 5 -18 12 -40 16 -22 4
-43 13 -47 20 -5 7 -33 15 -63 18 -142 12 -265 30 -268 38 -5 12 -249 12 -254
0z m214 -204 c27 -7 53 -18 60 -25 7 -7 18 -12 25 -12 7 0 13 -6 13 -14 0 -7
11 -22 25 -32 24 -18 25 -24 25 -111 0 -55 -4 -93 -10 -93 -5 0 -10 -7 -10
-15 0 -8 -4 -15 -10 -15 -5 0 -12 -10 -15 -23 -8 -29 -46 -46 -132 -58 -69
-10 -203 4 -203 21 0 4 -9 10 -20 13 -12 3 -20 14 -20 26 0 12 -6 21 -13 21
-20 0 -37 60 -37 129 0 66 12 101 34 101 8 0 17 11 20 25 4 14 13 25 20 25 8
0 16 6 19 14 12 32 145 45 229 23z"/>
<path d="M14020 1992 c0 -8 -143 -29 -262 -39 -32 -3 -58 -9 -58 -14 0 -4 -19
-13 -42 -20 -24 -6 -45 -14 -48 -18 -3 -4 -23 -11 -45 -16 -26 -7 -43 -18 -50
-32 -5 -13 -15 -23 -22 -23 -7 0 -13 -4 -13 -10 0 -5 -9 -10 -20 -10 -11 0
-23 -7 -26 -15 -4 -8 -12 -15 -20 -15 -8 0 -19 -19 -26 -45 -7 -25 -17 -45
-24 -45 -15 0 -24 -33 -24 -95 0 -64 9 -95 26 -95 8 0 14 -9 14 -20 0 -29 21
-70 37 -70 7 0 13 -4 13 -10 0 -5 9 -10 20 -10 13 0 22 -9 26 -25 3 -14 12
-25 19 -25 7 0 18 -7 25 -15 7 -8 27 -15 46 -15 18 0 40 -7 49 -16 9 -9 35
-21 58 -26 23 -5 44 -12 47 -16 8 -12 101 -40 153 -47 26 -3 47 -10 47 -16 0
-12 427 -12 432 1 2 5 33 14 69 19 37 5 76 14 87 20 12 6 30 11 41 11 10 0 21
5 23 11 2 5 23 14 47 20 23 5 50 16 58 24 8 8 21 15 28 15 25 0 65 23 65 37 0
7 7 13 16 13 19 0 54 37 54 57 0 7 6 13 14 13 13 0 26 41 26 81 0 18 -13 19
-264 19 l-264 0 -7 -30 c-4 -16 -13 -30 -21 -30 -7 0 -16 -10 -19 -23 -10 -37
-58 -51 -175 -52 -87 0 -111 3 -137 20 -18 10 -33 27 -33 37 0 11 -7 18 -20
18 -11 0 -20 7 -20 15 0 8 -4 15 -10 15 -5 0 -10 11 -10 25 0 14 -4 25 -10 25
-5 0 -10 20 -10 45 0 25 5 45 10 45 6 0 10 10 10 21 0 21 34 59 52 59 4 0 8 8
8 18 0 34 45 47 166 47 76 0 118 -5 126 -13 7 -7 20 -12 29 -12 9 0 19 -9 22
-20 3 -11 12 -20 21 -20 9 0 16 -7 16 -15 0 -13 34 -15 250 -15 l250 0 -6 43
c-4 24 -15 49 -26 57 -11 8 -40 34 -64 58 -27 26 -53 42 -68 42 -13 0 -26 5
-28 11 -2 5 -10 11 -18 13 -40 8 -70 19 -70 26 0 4 -21 10 -47 13 -213 24
-263 31 -263 39 0 4 -52 8 -115 8 -63 0 -115 -4 -115 -8z"/>
<path d="M12650 1590 l0 -380 275 0 275 0 0 380 0 380 -275 0 -275 0 0 -380z"/>
<path d="M5870 784 c-122 -7 -110 18 -110 -235 0 -242 2 -248 63 -263 30 -7
460 -9 492 -2 11 3 28 5 37 5 9 1 23 7 30 14 7 8 44 17 82 21 57 6 73 12 97
36 16 15 29 35 29 43 0 9 6 17 13 20 8 2 12 34 12 108 0 102 -1 106 -27 131
-16 14 -28 28 -28 32 0 17 -31 36 -59 36 -16 0 -42 5 -58 11 -79 31 -387 54
-573 43z m347 -65 c43 -7 80 -15 83 -18 5 -7 37 -22 87 -42 19 -8 37 -25 44
-41 6 -16 15 -28 20 -28 5 0 9 -22 9 -50 0 -27 -4 -50 -9 -50 -5 0 -12 -14
-16 -31 -4 -17 -13 -33 -20 -35 -7 -3 -15 -14 -18 -24 -5 -18 -60 -40 -104
-40 -12 0 -23 -6 -25 -12 -4 -10 -49 -14 -170 -16 l-166 -3 -4 33 c-9 56 -9
332 -1 344 5 6 15 14 23 17 27 10 187 7 267 -4z"/>
<path d="M7573 782 l-42 -3 6 -112 c3 -62 3 -151 -1 -198 l-8 -86 -41 -14
c-23 -7 -45 -18 -49 -24 -12 -17 -252 -20 -269 -3 -8 8 -29 20 -46 27 -18 7
-33 20 -33 27 0 8 -4 14 -10 14 -5 0 -10 11 -10 24 0 14 -4 28 -10 31 -6 4
-10 68 -10 161 l0 154 -80 0 -80 0 2 -182 c2 -140 6 -182 16 -180 7 1 12 -8
12 -20 0 -55 10 -67 59 -74 25 -4 49 -11 52 -17 12 -18 94 -26 268 -27 165 -1
231 9 231 32 0 5 15 8 34 8 54 0 96 11 96 26 0 7 9 18 20 24 12 7 22 25 26 50
4 22 10 40 15 40 5 0 9 61 9 135 0 74 -3 135 -8 135 -4 0 -12 10 -17 23 -11
24 -57 34 -132 29z"/>
<path d="M8170 771 c-97 -21 -170 -50 -170 -67 0 -8 -4 -14 -10 -14 -5 0 -10
-22 -10 -50 0 -44 3 -50 20 -50 11 0 23 -7 26 -15 4 -8 14 -15 24 -15 10 0 20
-6 23 -14 4 -9 27 -16 64 -19 32 -3 78 -10 103 -15 25 -6 79 -16 120 -23 77
-13 104 -24 94 -40 -3 -5 -1 -9 5 -9 5 0 11 6 14 13 2 6 7 -5 11 -26 9 -46 4
-54 -36 -63 -18 -3 -38 -13 -44 -22 -9 -12 -41 -14 -204 -10 -139 3 -195 7
-198 16 -5 17 -62 15 -62 -2 0 -16 21 -26 55 -26 12 0 25 -6 28 -14 9 -22 69
-28 260 -27 169 0 247 11 247 33 0 4 12 8 28 8 46 0 66 10 80 38 28 59 4 142
-47 161 -14 5 -50 12 -80 15 -30 3 -57 10 -61 16 -6 9 -70 21 -202 37 -27 3
-48 10 -48 15 0 4 -11 13 -25 18 -34 13 -32 42 7 73 42 35 77 41 216 33 147
-8 205 -16 214 -29 4 -6 10 1 14 17 3 15 3 31 -2 36 -38 36 -325 49 -454 21z"/>
<path d="M9915 784 c-33 -2 -79 -6 -102 -10 l-43 -5 0 -245 0 -245 73 3 72 3
3 210 c2 183 4 212 19 223 37 27 313 5 313 -26 0 -7 7 -15 15 -18 10 -4 15
-20 15 -45 0 -28 -4 -39 -15 -39 -8 0 -15 -4 -15 -10 0 -5 -13 -10 -29 -10
-16 0 -37 -8 -47 -17 -11 -12 -38 -19 -83 -21 -97 -6 -115 -25 -53 -57 20 -11
43 -28 50 -37 7 -10 22 -18 33 -18 12 0 19 -7 19 -19 0 -14 12 -22 45 -30 25
-6 45 -15 45 -20 0 -5 17 -15 37 -22 20 -6 46 -20 57 -30 17 -16 36 -19 122
-19 97 0 102 1 97 20 -4 15 -17 21 -54 26 -32 4 -53 13 -59 24 -5 10 -25 21
-45 24 -21 4 -35 13 -35 22 0 8 -11 19 -25 24 -14 5 -25 16 -25 25 0 8 -7 15
-15 15 -8 0 -28 8 -44 18 l-30 18 98 23 c93 21 100 24 117 57 10 19 22 34 26
34 5 0 8 14 8 30 0 17 -4 30 -9 30 -5 0 -11 14 -14 30 -5 24 -12 30 -31 30
-13 0 -26 4 -28 10 -9 27 -293 54 -463 44z"/>
<path d="M11360 778 c-10 -4 -22 -13 -27 -20 -4 -8 -25 -22 -45 -32 -26 -11
-38 -24 -38 -37 0 -12 -8 -23 -20 -26 -11 -3 -20 -12 -20 -19 0 -8 -9 -14 -21
-14 -12 0 -23 -8 -26 -20 -3 -11 -12 -20 -19 -20 -8 0 -17 -7 -20 -15 -4 -8
-12 -15 -20 -15 -8 0 -14 -4 -14 -10 0 -16 -18 -11 -44 13 -74 67 -97 87 -102
87 -9 0 -64 61 -64 71 0 5 -6 9 -14 9 -7 0 -22 11 -32 25 -17 23 -25 25 -106
25 -72 0 -88 -3 -88 -15 0 -8 6 -15 14 -15 8 0 16 -7 20 -15 3 -8 12 -15 21
-15 9 0 15 -9 15 -25 0 -18 7 -28 25 -35 14 -5 25 -14 25 -20 0 -5 6 -10 13
-10 7 0 22 -8 33 -18 11 -10 32 -27 47 -36 15 -10 27 -25 27 -32 0 -8 7 -14
16 -14 9 0 29 -9 45 -21 29 -20 29 -22 29 -119 0 -113 -2 -110 94 -110 90 0
95 7 98 120 3 88 5 96 26 105 12 5 22 13 22 17 0 5 9 8 19 8 11 0 23 9 26 20
3 11 15 20 26 20 10 0 19 5 19 10 0 6 7 10 15 10 9 0 29 14 45 30 16 17 33 30
37 30 16 1 51 37 55 56 2 11 13 20 26 22 32 5 32 52 0 53 -13 0 -40 1 -61 2
-21 1 -47 -1 -57 -5z"/>
<path d="M4057 773 c-4 -3 -7 -116 -7 -250 l0 -243 75 0 c68 0 75 2 75 20 0
11 5 20 10 20 6 0 10 81 10 224 0 195 -2 225 -16 230 -21 8 -139 8 -147 -1z"/>
<path d="M4560 530 l0 -250 65 0 c35 0 76 5 90 12 24 11 25 14 25 110 0 59 -4
98 -10 98 -6 0 -10 35 -10 85 0 50 4 85 10 85 6 0 10 -4 10 -10 0 -5 9 -10 20
-10 15 0 22 -9 27 -30 3 -19 12 -30 23 -30 20 0 60 -32 60 -49 0 -6 7 -11 15
-11 8 0 15 -4 15 -10 0 -5 6 -10 14 -10 8 0 16 -7 20 -15 3 -8 12 -15 20 -15
8 0 18 -9 21 -21 7 -20 72 -88 87 -90 4 -1 13 -2 18 -3 6 0 14 -6 18 -11 11
-16 60 -35 91 -35 20 0 30 -6 34 -20 5 -18 13 -20 84 -20 51 1 84 5 97 15 27
20 40 160 31 330 -8 157 -6 155 -117 155 -47 0 -59 -3 -55 -14 3 -7 9 -98 13
-201 6 -176 6 -188 -10 -182 -10 4 -22 7 -27 7 -5 0 -9 7 -9 15 0 8 -9 15 -20
15 -12 0 -22 9 -26 24 -3 15 -15 27 -30 30 -13 4 -24 11 -24 16 0 6 -7 10 -15
10 -9 0 -18 7 -21 15 -4 8 -15 15 -26 15 -11 0 -22 8 -25 20 -3 10 -18 25 -34
32 -16 7 -29 16 -29 19 0 12 -58 69 -69 69 -6 0 -14 14 -17 30 -5 21 -12 30
-25 30 -11 0 -19 6 -19 13 0 26 -50 37 -170 37 l-120 0 0 -250z"/>
<path d="M8843 766 c-13 -6 -23 -19 -23 -28 0 -16 12 -18 119 -18 66 0 126 -3
135 -6 14 -5 16 -34 16 -220 l0 -214 75 0 c46 0 75 4 75 11 0 5 4 7 10 4 6 -4
11 71 12 207 l3 213 129 5 c91 4 131 9 134 18 2 6 8 10 13 6 5 -3 9 4 9 15 0
21 -3 21 -342 20 -230 -1 -350 -5 -365 -13z"/>
</g>
</svg>
